<svg version="1.1" xmlns="http://www.w3.org/2000/svg" width="100%" viewBox="0 0 624 560">

<!-- Teal shadow copy, offset +4,+4 -->
<g transform="translate(4,4)" fill="#2ec8c8">
<path d="M390.827820,455.908417 C366.035767,470.641663 341.499481,485.088226 317.133118,499.815948 C312.544006,502.589722 308.917694,502.622101 304.339508,499.835083 C286.145416,488.759247 267.775757,477.970459 249.413849,467.172791 C246.176590,465.269073 244.831375,462.816559 244.879074,459.037079 C245.036743,446.542419 244.922821,434.044464 244.943802,421.547852 C244.947128,419.574371 244.563354,417.172424 246.464935,416.039856 C248.491577,414.832764 250.165588,416.742310 251.839127,417.740753 C269.993927,428.571808 288.171478,439.365204 306.274536,450.282074 C309.401886,452.167969 312.000000,451.946533 315.069550,450.125000 C359.879486,423.533264 404.738464,397.024078 449.579254,370.484253 C450.867737,369.721680 451.978790,368.522705 453.351990,368.061890 C462.685669,364.929810 464.280823,358.318878 464.200104,349.085938 C463.742859,296.770142 463.895660,244.448074 464.075897,192.128952 C464.096680,186.100342 462.349060,182.414917 456.843018,179.420090 C445.750854,173.386871 435.142700,166.467209 424.285767,159.995544 C421.896759,158.571487 420.758820,156.778915 420.773621,153.933380 C420.844727,140.270782 420.774323,126.607483 420.785278,112.944458 C420.786591,111.311790 420.586273,109.549263 422.642822,108.178200 C430.264435,111.408813 437.000946,116.630074 444.291595,120.846443 C462.595306,131.431946 480.657135,142.439667 499.052704,152.860138 C504.917511,156.182373 507.365936,159.899612 507.329620,166.995010 C506.969574,237.308212 506.922150,307.624054 507.166840,377.937805 C507.192596,385.342590 504.580505,389.217163 498.385010,392.790161 C466.657562,411.087555 435.187927,429.831970 403.625793,448.416107 C399.471588,450.862152 395.303894,453.285339 390.827820,455.908417 z"/>
<path d="M153.737610,134.683807 C196.676453,109.431808 239.314651,84.386154 281.937988,59.315262 C289.829071,54.673759 297.801697,50.146839 305.458832,45.141994 C309.237823,42.671986 312.135956,42.845112 315.898834,45.115520 C333.582001,55.785149 351.396667,66.238266 369.232178,76.652534 C371.709930,78.099281 372.932587,80.074905 372.946686,82.689613 C373.024811,97.185394 372.989807,111.681854 372.950287,126.177956 C372.948669,126.775284 372.514404,127.371422 372.168091,128.259537 C368.194489,127.574005 365.154358,125.195023 361.965942,123.322342 C346.886047,114.465294 331.837067,105.552002 316.908661,96.443092 C312.671661,93.857788 309.173431,94.023987 304.908234,96.522766 C259.790466,122.954971 214.796402,149.613754 169.222107,175.238800 C159.384033,180.770432 156.696777,186.842117 156.809601,197.500046 C157.363480,249.826096 157.172531,302.161224 156.982422,354.492218 C156.961456,360.261536 158.772675,363.527557 163.898148,366.235107 C173.750320,371.439667 183.149933,377.494690 192.833542,383.028442 C195.756927,384.699036 197.321442,386.897888 197.321411,390.204956 C197.321350,397.031586 197.186523,403.859650 197.286682,410.684479 C197.384384,417.343201 197.869354,423.998505 197.875015,430.655609 C197.879211,435.579987 196.445602,436.185669 192.171799,433.656250 C168.671524,419.747803 145.231277,405.735107 121.594780,392.061859 C116.523239,389.128052 114.494499,385.790283 114.514572,379.789673 C114.750374,309.292572 114.801369,238.794220 114.582993,168.297165 C114.559372,160.671219 116.915092,155.871796 123.675209,152.273865 C133.809082,146.880341 143.533356,140.717255 153.737610,134.683807 z"/>
<path d="M328.121948,266.000000 C328.111450,293.986938 327.493317,321.492004 328.312958,348.954163 C328.824097,366.080078 325.465546,382.251373 320.850403,398.420013 C318.299286,407.357574 315.836334,416.320709 313.402649,425.291046 C312.960510,426.920685 312.626801,428.501282 310.425385,429.704254 C307.553650,425.410950 307.259796,420.350586 305.847534,415.778717 C302.224670,404.050232 298.961304,392.210114 295.604431,380.400330 C294.416656,376.221649 293.925598,371.924347 293.925140,367.584747 C293.918915,307.780396 294.049957,247.975586 293.825500,188.172089 C293.778961,175.767349 297.563873,164.311829 300.478485,152.585480 C302.998199,142.447906 305.520264,132.310516 308.139374,122.198448 C308.621552,120.336823 308.747559,118.210167 311.006226,116.530739 C314.255402,121.195702 314.953156,126.697083 316.130280,131.820343 C318.955292,144.115906 322.028717,156.314484 325.652985,168.408157 C327.044739,173.052292 328.185486,177.933609 328.155823,183.039841 C327.996216,210.525696 328.105469,238.013123 328.121948,266.000000 z"/>
</g>

<!-- Black original on top -->
<g fill="#FFFFFF">
<path d="M390.827820,455.908417 C366.035767,470.641663 341.499481,485.088226 317.133118,499.815948 C312.544006,502.589722 308.917694,502.622101 304.339508,499.835083 C286.145416,488.759247 267.775757,477.970459 249.413849,467.172791 C246.176590,465.269073 244.831375,462.816559 244.879074,459.037079 C245.036743,446.542419 244.922821,434.044464 244.943802,421.547852 C244.947128,419.574371 244.563354,417.172424 246.464935,416.039856 C248.491577,414.832764 250.165588,416.742310 251.839127,417.740753 C269.993927,428.571808 288.171478,439.365204 306.274536,450.282074 C309.401886,452.167969 312.000000,451.946533 315.069550,450.125000 C359.879486,423.533264 404.738464,397.024078 449.579254,370.484253 C450.867737,369.721680 451.978790,368.522705 453.351990,368.061890 C462.685669,364.929810 464.280823,358.318878 464.200104,349.085938 C463.742859,296.770142 463.895660,244.448074 464.075897,192.128952 C464.096680,186.100342 462.349060,182.414917 456.843018,179.420090 C445.750854,173.386871 435.142700,166.467209 424.285767,159.995544 C421.896759,158.571487 420.758820,156.778915 420.773621,153.933380 C420.844727,140.270782 420.774323,126.607483 420.785278,112.944458 C420.786591,111.311790 420.586273,109.549263 422.642822,108.178200 C430.264435,111.408813 437.000946,116.630074 444.291595,120.846443 C462.595306,131.431946 480.657135,142.439667 499.052704,152.860138 C504.917511,156.182373 507.365936,159.899612 507.329620,166.995010 C506.969574,237.308212 506.922150,307.624054 507.166840,377.937805 C507.192596,385.342590 504.580505,389.217163 498.385010,392.790161 C466.657562,411.087555 435.187927,429.831970 403.625793,448.416107 C399.471588,450.862152 395.303894,453.285339 390.827820,455.908417 z"/>
<path d="M153.737610,134.683807 C196.676453,109.431808 239.314651,84.386154 281.937988,59.315262 C289.829071,54.673759 297.801697,50.146839 305.458832,45.141994 C309.237823,42.671986 312.135956,42.845112 315.898834,45.115520 C333.582001,55.785149 351.396667,66.238266 369.232178,76.652534 C371.709930,78.099281 372.932587,80.074905 372.946686,82.689613 C373.024811,97.185394 372.989807,111.681854 372.950287,126.177956 C372.948669,126.775284 372.514404,127.371422 372.168091,128.259537 C368.194489,127.574005 365.154358,125.195023 361.965942,123.322342 C346.886047,114.465294 331.837067,105.552002 316.908661,96.443092 C312.671661,93.857788 309.173431,94.023987 304.908234,96.522766 C259.790466,122.954971 214.796402,149.613754 169.222107,175.238800 C159.384033,180.770432 156.696777,186.842117 156.809601,197.500046 C157.363480,249.826096 157.172531,302.161224 156.982422,354.492218 C156.961456,360.261536 158.772675,363.527557 163.898148,366.235107 C173.750320,371.439667 183.149933,377.494690 192.833542,383.028442 C195.756927,384.699036 197.321442,386.897888 197.321411,390.204956 C197.321350,397.031586 197.186523,403.859650 197.286682,410.684479 C197.384384,417.343201 197.869354,423.998505 197.875015,430.655609 C197.879211,435.579987 196.445602,436.185669 192.171799,433.656250 C168.671524,419.747803 145.231277,405.735107 121.594780,392.061859 C116.523239,389.128052 114.494499,385.790283 114.514572,379.789673 C114.750374,309.292572 114.801369,238.794220 114.582993,168.297165 C114.559372,160.671219 116.915092,155.871796 123.675209,152.273865 C133.809082,146.880341 143.533356,140.717255 153.737610,134.683807 z"/>
<path d="M328.121948,266.000000 C328.111450,293.986938 327.493317,321.492004 328.312958,348.954163 C328.824097,366.080078 325.465546,382.251373 320.850403,398.420013 C318.299286,407.357574 315.836334,416.320709 313.402649,425.291046 C312.960510,426.920685 312.626801,428.501282 310.425385,429.704254 C307.553650,425.410950 307.259796,420.350586 305.847534,415.778717 C302.224670,404.050232 298.961304,392.210114 295.604431,380.400330 C294.416656,376.221649 293.925598,371.924347 293.925140,367.584747 C293.918915,307.780396 294.049957,247.975586 293.825500,188.172089 C293.778961,175.767349 297.563873,164.311829 300.478485,152.585480 C302.998199,142.447906 305.520264,132.310516 308.139374,122.198448 C308.621552,120.336823 308.747559,118.210167 311.006226,116.530739 C314.255402,121.195702 314.953156,126.697083 316.130280,131.820343 C318.955292,144.115906 322.028717,156.314484 325.652985,168.408157 C327.044739,173.052292 328.185486,177.933609 328.155823,183.039841 C327.996216,210.525696 328.105469,238.013123 328.121948,266.000000 z"/>
</g>

</svg>
